<?xml version="1.0" encoding="UTF-8"?>
<!DOCTYPE svg PUBLIC "-//W3C//DTD SVG 1.1//EN" "http://www.w3.org/Graphics/SVG/1.1/DTD/svg11.dtd">
<!-- Creator: CorelDRAW 2019 (64-Bit) -->
<svg xmlns="http://www.w3.org/2000/svg" xml:space="preserve" width="100px" height="100px" version="1.1"
     style="shape-rendering:geometricPrecision; text-rendering:geometricPrecision; image-rendering:optimizeQuality; fill-rule:evenodd; clip-rule:evenodd"
     viewBox="0 0 100 100"
>
 <defs>
  <style type="text/css">
   <![CDATA[
    .fil0 {fill:#CA2127}
    .fil1 {fill:white}
   ]]>
  </style>
 </defs>
 <g id="Слой_x0020_1">
  <metadata id="CorelCorpID_0Corel-Layer"/>
  <rect class="fil0" width="100" height="100"/>
  <path class="fil1" d="M46.41 17.23c-11.85,1.27 -23.67,10.4 -24.15,23.46 -0.31,7.96 3.03,13.94 11,15.62 0.91,-3.77 1.08,-5.81 1.08,-5.81 0,0 -3.51,-3.36 -3.86,-5.49 -2.93,-17.19 20.81,-28.93 33.27,-16.93 8.59,8.33 2.92,33.95 -10.95,31.28 -13.3,-2.54 6.51,-22.92 -4.11,-26.93 -8.61,-3.27 -13.2,9.96 -9.12,16.51 -2.4,11.29 -7.56,21.92 -5.47,36.06 6.79,-4.68 9.07,-13.66 10.95,-23.02 3.41,1.97 5.23,4.03 9.57,4.34 16.04,1.18 24.99,-15.24 22.81,-30.41 -1.97,-13.45 -16.04,-20.29 -31.02,-18.68z"/>
 </g>
</svg>
