<?xml version="1.0" encoding="UTF-8"?>
<!DOCTYPE svg PUBLIC "-//W3C//DTD SVG 1.1//EN" "http://www.w3.org/Graphics/SVG/1.1/DTD/svg11.dtd">
<!-- Creator: CorelDRAW 2019 (64-Bit) -->
<svg xmlns="http://www.w3.org/2000/svg" xml:space="preserve" width="100px" height="100px" version="1.1"
     style="shape-rendering:geometricPrecision; text-rendering:geometricPrecision; image-rendering:optimizeQuality; fill-rule:evenodd; clip-rule:evenodd"
     viewBox="0 0 100 100"
>
 <defs>
  <style type="text/css">
   <![CDATA[
    .fil0 {fill:#CA2127}
    .fil1 {fill:white}
   ]]>
  </style>
 </defs>
 <g id="Слой_x0020_1">
  <metadata id="CorelCorpID_0Corel-Layer"/>
  <rect class="fil0" width="100" height="100"/>
  <path class="fil1" d="M47.29 24.45c-8.98,0.96 -17.91,7.87 -18.27,17.75 -0.24,6.03 2.28,10.55 8.31,11.82 0.69,-2.85 0.82,-4.4 0.82,-4.4 0,0 -2.65,-2.54 -2.92,-4.15 -2.22,-13.01 15.74,-21.89 25.17,-12.81 6.5,6.3 2.22,25.68 -8.28,23.67 -10.06,-1.93 4.92,-17.35 -3.11,-20.38 -6.52,-2.47 -9.99,7.54 -6.9,12.49 -1.82,8.54 -5.72,16.59 -4.14,27.29 5.14,-3.55 6.86,-10.34 8.28,-17.42 2.58,1.49 3.96,3.05 7.25,3.28 12.13,0.89 18.91,-11.53 17.25,-23.01 -1.48,-10.17 -12.13,-15.35 -23.46,-14.13z"/>
 </g>
</svg>
